<mxfile host="app.diagrams.net" agent="Mozilla/5.0 (Macintosh; Intel Mac OS X 10_15_7) AppleWebKit/537.36 (KHTML, like Gecko) Chrome/132.0.0.0 Safari/537.36" version="26.1.3">
  <diagram name="Page-1" id="-U8XGRYqRvpe9GnIYjJW">
    <mxGraphModel dx="1199" dy="696" grid="1" gridSize="10" guides="1" tooltips="1" connect="1" arrows="1" fold="1" page="1" pageScale="1" pageWidth="850" pageHeight="1100" math="0" shadow="0">
      <root>
        <mxCell id="0" />
        <mxCell id="1" parent="0" />
        <mxCell id="rGtdyjbUayjFL_wCR3qf-1" value="" style="ellipse;html=1;shape=endState;fillColor=#000000;strokeColor=#000000;" vertex="1" parent="1">
          <mxGeometry x="535" y="660" width="30" height="30" as="geometry" />
        </mxCell>
        <mxCell id="rGtdyjbUayjFL_wCR3qf-2" value="" style="ellipse;html=1;shape=startState;fillColor=#000000;strokeColor=#000000;" vertex="1" parent="1">
          <mxGeometry x="170" y="80" width="30" height="30" as="geometry" />
        </mxCell>
        <mxCell id="rGtdyjbUayjFL_wCR3qf-3" value="" style="edgeStyle=orthogonalEdgeStyle;html=1;verticalAlign=bottom;endArrow=open;endSize=8;strokeColor=#000000;rounded=0;entryX=0.5;entryY=0;entryDx=0;entryDy=0;" edge="1" source="rGtdyjbUayjFL_wCR3qf-2" parent="1" target="rGtdyjbUayjFL_wCR3qf-4">
          <mxGeometry relative="1" as="geometry">
            <mxPoint x="185" y="170" as="targetPoint" />
          </mxGeometry>
        </mxCell>
        <mxCell id="rGtdyjbUayjFL_wCR3qf-5" style="edgeStyle=orthogonalEdgeStyle;rounded=0;orthogonalLoop=1;jettySize=auto;html=1;" edge="1" parent="1" source="rGtdyjbUayjFL_wCR3qf-4" target="rGtdyjbUayjFL_wCR3qf-6">
          <mxGeometry relative="1" as="geometry">
            <mxPoint x="185" y="270" as="targetPoint" />
          </mxGeometry>
        </mxCell>
        <mxCell id="rGtdyjbUayjFL_wCR3qf-4" value="User Selects an Event" style="rounded=1;whiteSpace=wrap;html=1;" vertex="1" parent="1">
          <mxGeometry x="125" y="170" width="120" height="50" as="geometry" />
        </mxCell>
        <mxCell id="rGtdyjbUayjFL_wCR3qf-7" style="edgeStyle=orthogonalEdgeStyle;rounded=0;orthogonalLoop=1;jettySize=auto;html=1;" edge="1" parent="1" source="rGtdyjbUayjFL_wCR3qf-6" target="rGtdyjbUayjFL_wCR3qf-8">
          <mxGeometry relative="1" as="geometry">
            <mxPoint x="185" y="330" as="targetPoint" />
          </mxGeometry>
        </mxCell>
        <mxCell id="rGtdyjbUayjFL_wCR3qf-6" value="User Clicks on the Like Button" style="rounded=1;whiteSpace=wrap;html=1;" vertex="1" parent="1">
          <mxGeometry x="125" y="250" width="120" height="50" as="geometry" />
        </mxCell>
        <mxCell id="rGtdyjbUayjFL_wCR3qf-9" style="edgeStyle=orthogonalEdgeStyle;rounded=0;orthogonalLoop=1;jettySize=auto;html=1;" edge="1" parent="1" source="rGtdyjbUayjFL_wCR3qf-8" target="rGtdyjbUayjFL_wCR3qf-10">
          <mxGeometry relative="1" as="geometry">
            <mxPoint x="300" y="375" as="targetPoint" />
          </mxGeometry>
        </mxCell>
        <mxCell id="rGtdyjbUayjFL_wCR3qf-29" value="No" style="edgeLabel;html=1;align=center;verticalAlign=middle;resizable=0;points=[];" vertex="1" connectable="0" parent="rGtdyjbUayjFL_wCR3qf-9">
          <mxGeometry x="0.0667" y="1" relative="1" as="geometry">
            <mxPoint x="-30" y="-14" as="offset" />
          </mxGeometry>
        </mxCell>
        <mxCell id="rGtdyjbUayjFL_wCR3qf-14" style="edgeStyle=orthogonalEdgeStyle;rounded=0;orthogonalLoop=1;jettySize=auto;html=1;entryX=0;entryY=0;entryDx=0;entryDy=0;" edge="1" parent="1" source="rGtdyjbUayjFL_wCR3qf-8" target="rGtdyjbUayjFL_wCR3qf-15">
          <mxGeometry relative="1" as="geometry">
            <mxPoint x="185" y="490" as="targetPoint" />
          </mxGeometry>
        </mxCell>
        <mxCell id="rGtdyjbUayjFL_wCR3qf-30" value="Yes" style="edgeLabel;html=1;align=center;verticalAlign=middle;resizable=0;points=[];" vertex="1" connectable="0" parent="rGtdyjbUayjFL_wCR3qf-14">
          <mxGeometry x="-0.2888" y="-1" relative="1" as="geometry">
            <mxPoint x="15" y="-25" as="offset" />
          </mxGeometry>
        </mxCell>
        <mxCell id="rGtdyjbUayjFL_wCR3qf-8" value="Is the user Registered?" style="rhombus;whiteSpace=wrap;html=1;" vertex="1" parent="1">
          <mxGeometry x="140" y="330" width="90" height="90" as="geometry" />
        </mxCell>
        <mxCell id="rGtdyjbUayjFL_wCR3qf-11" style="edgeStyle=orthogonalEdgeStyle;rounded=0;orthogonalLoop=1;jettySize=auto;html=1;" edge="1" parent="1" source="rGtdyjbUayjFL_wCR3qf-10" target="rGtdyjbUayjFL_wCR3qf-13">
          <mxGeometry relative="1" as="geometry">
            <mxPoint x="420" y="375" as="targetPoint" />
          </mxGeometry>
        </mxCell>
        <mxCell id="rGtdyjbUayjFL_wCR3qf-10" value="Ask User to Sign In with a pop-up Message" style="rounded=1;whiteSpace=wrap;html=1;" vertex="1" parent="1">
          <mxGeometry x="305" y="345" width="120" height="60" as="geometry" />
        </mxCell>
        <mxCell id="rGtdyjbUayjFL_wCR3qf-16" value="Yes" style="edgeStyle=orthogonalEdgeStyle;rounded=0;orthogonalLoop=1;jettySize=auto;html=1;entryX=1;entryY=0;entryDx=0;entryDy=0;exitX=0.5;exitY=1;exitDx=0;exitDy=0;" edge="1" parent="1" source="rGtdyjbUayjFL_wCR3qf-13" target="rGtdyjbUayjFL_wCR3qf-15">
          <mxGeometry x="-0.9674" y="20" relative="1" as="geometry">
            <Array as="points">
              <mxPoint x="530" y="440" />
              <mxPoint x="258" y="440" />
            </Array>
            <mxPoint as="offset" />
          </mxGeometry>
        </mxCell>
        <mxCell id="rGtdyjbUayjFL_wCR3qf-27" style="edgeStyle=orthogonalEdgeStyle;rounded=0;orthogonalLoop=1;jettySize=auto;html=1;entryX=1;entryY=0.5;entryDx=0;entryDy=0;" edge="1" parent="1" source="rGtdyjbUayjFL_wCR3qf-13" target="rGtdyjbUayjFL_wCR3qf-1">
          <mxGeometry relative="1" as="geometry">
            <Array as="points">
              <mxPoint x="690" y="375" />
              <mxPoint x="690" y="675" />
            </Array>
          </mxGeometry>
        </mxCell>
        <mxCell id="rGtdyjbUayjFL_wCR3qf-28" value="No" style="edgeLabel;html=1;align=center;verticalAlign=middle;resizable=0;points=[];" vertex="1" connectable="0" parent="rGtdyjbUayjFL_wCR3qf-27">
          <mxGeometry x="-0.9111" y="2" relative="1" as="geometry">
            <mxPoint x="-6" y="-13" as="offset" />
          </mxGeometry>
        </mxCell>
        <mxCell id="rGtdyjbUayjFL_wCR3qf-13" value="Did User&amp;nbsp;&lt;div&gt;Sign In?&lt;/div&gt;" style="rhombus;whiteSpace=wrap;html=1;" vertex="1" parent="1">
          <mxGeometry x="490" y="335" width="80" height="80" as="geometry" />
        </mxCell>
        <mxCell id="rGtdyjbUayjFL_wCR3qf-17" style="edgeStyle=orthogonalEdgeStyle;rounded=0;orthogonalLoop=1;jettySize=auto;html=1;" edge="1" parent="1" source="rGtdyjbUayjFL_wCR3qf-15" target="rGtdyjbUayjFL_wCR3qf-18">
          <mxGeometry relative="1" as="geometry">
            <mxPoint x="221.5" y="610" as="targetPoint" />
          </mxGeometry>
        </mxCell>
        <mxCell id="rGtdyjbUayjFL_wCR3qf-32" value="Yes" style="edgeLabel;html=1;align=center;verticalAlign=middle;resizable=0;points=[];" vertex="1" connectable="0" parent="rGtdyjbUayjFL_wCR3qf-17">
          <mxGeometry x="0.28" relative="1" as="geometry">
            <mxPoint x="19" y="-2" as="offset" />
          </mxGeometry>
        </mxCell>
        <mxCell id="rGtdyjbUayjFL_wCR3qf-22" style="edgeStyle=orthogonalEdgeStyle;rounded=0;orthogonalLoop=1;jettySize=auto;html=1;" edge="1" parent="1" source="rGtdyjbUayjFL_wCR3qf-15" target="rGtdyjbUayjFL_wCR3qf-23">
          <mxGeometry relative="1" as="geometry">
            <mxPoint x="340" y="510" as="targetPoint" />
          </mxGeometry>
        </mxCell>
        <mxCell id="rGtdyjbUayjFL_wCR3qf-31" value="No" style="edgeLabel;html=1;align=center;verticalAlign=middle;resizable=0;points=[];" vertex="1" connectable="0" parent="rGtdyjbUayjFL_wCR3qf-22">
          <mxGeometry x="-0.3973" relative="1" as="geometry">
            <mxPoint x="-10" y="-17" as="offset" />
          </mxGeometry>
        </mxCell>
        <mxCell id="rGtdyjbUayjFL_wCR3qf-15" value="Is the Event already Liked?" style="rhombus;whiteSpace=wrap;html=1;" vertex="1" parent="1">
          <mxGeometry x="149" y="470" width="145" height="80" as="geometry" />
        </mxCell>
        <mxCell id="rGtdyjbUayjFL_wCR3qf-19" style="edgeStyle=orthogonalEdgeStyle;rounded=0;orthogonalLoop=1;jettySize=auto;html=1;" edge="1" parent="1" source="rGtdyjbUayjFL_wCR3qf-18" target="rGtdyjbUayjFL_wCR3qf-20">
          <mxGeometry relative="1" as="geometry">
            <mxPoint x="221.5" y="680" as="targetPoint" />
          </mxGeometry>
        </mxCell>
        <mxCell id="rGtdyjbUayjFL_wCR3qf-18" value="System Removes the Like" style="rounded=1;whiteSpace=wrap;html=1;" vertex="1" parent="1">
          <mxGeometry x="161.5" y="580" width="120" height="50" as="geometry" />
        </mxCell>
        <mxCell id="rGtdyjbUayjFL_wCR3qf-21" style="edgeStyle=orthogonalEdgeStyle;rounded=0;orthogonalLoop=1;jettySize=auto;html=1;entryX=0;entryY=0.5;entryDx=0;entryDy=0;" edge="1" parent="1" source="rGtdyjbUayjFL_wCR3qf-20" target="rGtdyjbUayjFL_wCR3qf-1">
          <mxGeometry relative="1" as="geometry" />
        </mxCell>
        <mxCell id="rGtdyjbUayjFL_wCR3qf-20" value="System Decrements the Like Counter" style="rounded=1;whiteSpace=wrap;html=1;" vertex="1" parent="1">
          <mxGeometry x="161.5" y="650" width="120" height="50" as="geometry" />
        </mxCell>
        <mxCell id="rGtdyjbUayjFL_wCR3qf-24" style="edgeStyle=orthogonalEdgeStyle;rounded=0;orthogonalLoop=1;jettySize=auto;html=1;" edge="1" parent="1" source="rGtdyjbUayjFL_wCR3qf-23" target="rGtdyjbUayjFL_wCR3qf-25">
          <mxGeometry relative="1" as="geometry">
            <mxPoint x="490" y="510.5" as="targetPoint" />
          </mxGeometry>
        </mxCell>
        <mxCell id="rGtdyjbUayjFL_wCR3qf-23" value="System Adds the Like" style="rounded=1;whiteSpace=wrap;html=1;" vertex="1" parent="1">
          <mxGeometry x="330" y="493" width="120" height="35" as="geometry" />
        </mxCell>
        <mxCell id="rGtdyjbUayjFL_wCR3qf-26" style="edgeStyle=orthogonalEdgeStyle;rounded=0;orthogonalLoop=1;jettySize=auto;html=1;entryX=0.5;entryY=0;entryDx=0;entryDy=0;" edge="1" parent="1" source="rGtdyjbUayjFL_wCR3qf-25" target="rGtdyjbUayjFL_wCR3qf-1">
          <mxGeometry relative="1" as="geometry" />
        </mxCell>
        <mxCell id="rGtdyjbUayjFL_wCR3qf-25" value="System Increments the Like Counter" style="rounded=1;whiteSpace=wrap;html=1;" vertex="1" parent="1">
          <mxGeometry x="490" y="485" width="120" height="50" as="geometry" />
        </mxCell>
      </root>
    </mxGraphModel>
  </diagram>
</mxfile>
